<svg style="position: absolute; width: 0; height: 0; overflow: hidden;" version="1.1" xmlns="http://www.w3.org/2000/svg"
>
    <symbol id="icon-format_list_bulleted" viewBox="0 0 24 24">
        <path d="M4 10.5c-.83 0-1.5.67-1.5 1.5s.67 1.5 1.5 1.5 1.5-.67 1.5-1.5-.67-1.5-1.5-1.5zm0-6c-.83 0-1.5.67-1.5 1.5S3.17 7.5 4 7.5 5.5 6.83 5.5 6 4.83 4.5 4 4.5zm0 12c-.83 0-1.5.68-1.5 1.5s.68 1.5 1.5 1.5 1.5-.68 1.5-1.5-.67-1.5-1.5-1.5zM7 19h14v-2H7v2zm0-6h14v-2H7v2zm0-8v2h14V5H7z"/>
        <path fill="none" d="M0 0h24v24H0V0z"/>
    </symbol>
    <symbol id="icon-delete_outline" viewBox="0 0 24 24">
        <path d="M6 19c0 1.1.9 2 2 2h8c1.1 0 2-.9 2-2V7H6v12zM8 9h8v10H8V9zm7.5-5l-1-1h-5l-1 1H5v2h14V4z"/>
        <path fill="none" d="M0 0h24v24H0V0z"/>
    </symbol>
    <symbol id="icon-fa_cog" viewBox="0 0 512 512">
        <path fill="currentColor"
              d="M482.696 299.276l-32.61-18.827a195.168 195.168 0 0 0 0-48.899l32.61-18.827c9.576-5.528 14.195-16.902 11.046-27.501-11.214-37.749-31.175-71.728-57.535-99.595-7.634-8.07-19.817-9.836-29.437-4.282l-32.562 18.798a194.125 194.125 0 0 0-42.339-24.48V38.049c0-11.13-7.652-20.804-18.484-23.367-37.644-8.909-77.118-8.91-114.77 0-10.831 2.563-18.484 12.236-18.484 23.367v37.614a194.101 194.101 0 0 0-42.339 24.48L105.23 81.345c-9.621-5.554-21.804-3.788-29.437 4.282-26.36 27.867-46.321 61.847-57.535 99.595-3.149 10.599 1.47 21.972 11.046 27.501l32.61 18.827a195.168 195.168 0 0 0 0 48.899l-32.61 18.827c-9.576 5.528-14.195 16.902-11.046 27.501 11.214 37.748 31.175 71.728 57.535 99.595 7.634 8.07 19.817 9.836 29.437 4.283l32.562-18.798a194.08 194.08 0 0 0 42.339 24.479v37.614c0 11.13 7.652 20.804 18.484 23.367 37.645 8.909 77.118 8.91 114.77 0 10.831-2.563 18.484-12.236 18.484-23.367v-37.614a194.138 194.138 0 0 0 42.339-24.479l32.562 18.798c9.62 5.554 21.803 3.788 29.437-4.283 26.36-27.867 46.321-61.847 57.535-99.595 3.149-10.599-1.47-21.972-11.046-27.501zm-65.479 100.461l-46.309-26.74c-26.988 23.071-36.559 28.876-71.039 41.059v53.479a217.145 217.145 0 0 1-87.738 0v-53.479c-33.621-11.879-43.355-17.395-71.039-41.059l-46.309 26.74c-19.71-22.09-34.689-47.989-43.929-75.958l46.329-26.74c-6.535-35.417-6.538-46.644 0-82.079l-46.329-26.74c9.24-27.969 24.22-53.869 43.929-75.969l46.309 26.76c27.377-23.434 37.063-29.065 71.039-41.069V44.464a216.79 216.79 0 0 1 87.738 0v53.479c33.978 12.005 43.665 17.637 71.039 41.069l46.309-26.76c19.709 22.099 34.689 47.999 43.929 75.969l-46.329 26.74c6.536 35.426 6.538 46.644 0 82.079l46.329 26.74c-9.24 27.968-24.219 53.868-43.929 75.957zM256 160c-52.935 0-96 43.065-96 96s43.065 96 96 96 96-43.065 96-96-43.065-96-96-96zm0 160c-35.29 0-64-28.71-64-64s28.71-64 64-64 64 28.71 64 64-28.71 64-64 64z"/>
    </symbol>
    <symbol id="icon-fa_tag" viewBox="0 0 512 512">
        <g class="fa-group">
            <path fill="currentColor"
                  d="M497.94 225.94L286.06 14.06A48 48 0 0 0 252.12 0H48A48 48 0 0 0 0 48v204.12a48 48 0 0 0 14.06 33.94l211.88 211.88a48 48 0 0 0 67.88 0l204.12-204.12a48 48 0 0 0 0-67.88zM112 160a48 48 0 1 1 48-48 48 48 0 0 1-48 48z"
                  class="fa-secondary"/>
            <path fill="currentColor" d="" class="fa-primary"></path>
        </g>
    </symbol>
    <symbol id="icon-person_outline" viewBox="0 0 24 24">
        <path d="M12 5.9c1.16 0 2.1.94 2.1 2.1s-.94 2.1-2.1 2.1S9.9 9.16 9.9 8s.94-2.1 2.1-2.1m0 9c2.97 0 6.1 1.46 6.1 2.1v1.1H5.9V17c0-.64 3.13-2.1 6.1-2.1M12 4C9.79 4 8 5.79 8 8s1.79 4 4 4 4-1.79 4-4-1.79-4-4-4zm0 9c-2.67 0-8 1.34-8 4v3h16v-3c0-2.66-5.33-4-8-4z"/>
        <path d="M0 0h24v24H0z" fill="none"/>
    </symbol>
    <symbol id="icon-work_outline" viewBox="0 0 24 24">
        <path fill-rule="evenodd" clip-rule="evenodd"
              d="M14 6V4h-4v2h4zM4 8v11h16V8H4zm16-2c1.11 0 2 .89 2 2v11c0 1.11-.89 2-2 2H4c-1.11 0-2-.89-2-2l.01-11c0-1.11.88-2 1.99-2h4V4c0-1.11.89-2 2-2h4c1.11 0 2 .89 2 2v2h4z"/>
        <path fill="none" d="M0 0h24v24H0z"/>
    </symbol>
    <symbol id="icon-import_export" viewBox="0 0 24 24">
        <path d="M9 3L5 6.99h3V14h2V6.99h3L9 3zm7 14.01V10h-2v7.01h-3L15 21l4-3.99h-3z"/>
        <path d="M0 0h24v24H0z" fill="none"/>
    </symbol>
    <symbol id="icon-search" viewBox="0 0 24 24">
        <path d="M15.5 14h-.79l-.28-.27C15.41 12.59 16 11.11 16 9.5 16 5.91 13.09 3 9.5 3S3 5.91 3 9.5 5.91 16 9.5 16c1.61 0 3.09-.59 4.23-1.57l.27.28v.79l5 4.99L20.49 19l-4.99-5zm-6 0C7.01 14 5 11.99 5 9.5S7.01 5 9.5 5 14 7.01 14 9.5 11.99 14 9.5 14z"/>
        <path d="M0 0h24v24H0z" fill="none"/>
    </symbol>
    <symbol id="icon-settings" viewBox="0 0 24 24">
        <path d="M12 15.516q1.453 0 2.484-1.031t1.031-2.484-1.031-2.484-2.484-1.031-2.484 1.031-1.031 2.484 1.031 2.484 2.484 1.031zM19.453 12.984l2.109 1.641q0.328 0.234 0.094 0.656l-2.016 3.469q-0.188 0.328-0.609 0.188l-2.484-0.984q-0.984 0.703-1.688 0.984l-0.375 2.625q-0.094 0.422-0.469 0.422h-4.031q-0.375 0-0.469-0.422l-0.375-2.625q-0.891-0.375-1.688-0.984l-2.484 0.984q-0.422 0.141-0.609-0.188l-2.016-3.469q-0.234-0.422 0.094-0.656l2.109-1.641q-0.047-0.328-0.047-0.984t0.047-0.984l-2.109-1.641q-0.328-0.234-0.094-0.656l2.016-3.469q0.188-0.328 0.609-0.188l2.484 0.984q0.984-0.703 1.688-0.984l0.375-2.625q0.094-0.422 0.469-0.422h4.031q0.375 0 0.469 0.422l0.375 2.625q0.891 0.375 1.688 0.984l2.484-0.984q0.422-0.141 0.609 0.188l2.016 3.469q0.234 0.422-0.094 0.656l-2.109 1.641q0.047 0.328 0.047 0.984t-0.047 0.984z"/>
    </symbol>
    <symbol id="icon-settings_restore" viewBox="0 0 24 24">
        <path d="M12 3q3.75 0 6.375 2.625t2.625 6.375-2.625 6.375-6.375 2.625q-1.266 0-2.859-0.539t-2.625-1.336l1.406-1.406q1.781 1.266 4.078 1.266 2.906 0 4.945-2.039t2.039-4.945-2.039-4.945-4.945-2.039-4.945 2.039-2.039 4.945h3l-4.031 3.984-3.984-3.984h3q0-3.75 2.625-6.375t6.375-2.625zM14.016 12q0 0.797-0.609 1.406t-1.406 0.609-1.406-0.609-0.609-1.406 0.609-1.406 1.406-0.609 1.406 0.609 0.609 1.406z"/>
    </symbol>
</svg>
